<svg width="15" height="15" viewBox="0 0 15 15" fill="none" xmlns="http://www.w3.org/2000/svg">
<path d="M7.5 4.2C6.84732 4.2 6.2093 4.39354 5.66662 4.75615C5.12394 5.11876 4.70097 5.63415 4.4512 6.23714C4.20143 6.84014 4.13608 7.50366 4.26341 8.1438C4.39074 8.78394 4.70503 9.37194 5.16655 9.83345C5.62806 10.295 6.21606 10.6093 6.8562 10.7366C7.49634 10.8639 8.15986 10.7986 8.76286 10.5488C9.36585 10.299 9.88124 9.87606 10.2438 9.33338C10.6065 8.7907 10.8 8.15268 10.8 7.5C10.799 6.62509 10.451 5.7863 9.83236 5.16764C9.2137 4.54899 8.37491 4.20099 7.5 4.2ZM7.5 10.2C6.96599 10.2 6.44397 10.0416 5.99996 9.74497C5.55595 9.44829 5.20988 9.02661 5.00552 8.53325C4.80117 8.03988 4.7477 7.497 4.85188 6.97326C4.95606 6.44951 5.21321 5.96841 5.59081 5.59081C5.96841 5.21321 6.44951 4.95606 6.97326 4.85188C7.497 4.7477 8.03988 4.80117 8.53325 5.00552C9.02661 5.20988 9.44829 5.55595 9.74497 5.99996C10.0416 6.44397 10.2 6.96599 10.2 7.5C10.2 8.21608 9.91554 8.90284 9.40919 9.40919C8.90284 9.91554 8.21608 10.2 7.5 10.2ZM11.1 0H3.9C2.86602 0.00119099 1.87473 0.412465 1.1436 1.1436C0.412465 1.87473 0.00119099 2.86602 0 3.9V11.1C0.00119099 12.134 0.412465 13.1253 1.1436 13.8564C1.87473 14.5875 2.86602 14.9988 3.9 15H11.1C12.134 14.9988 13.1253 14.5875 13.8564 13.8564C14.5875 13.1253 14.9988 12.134 15 11.1V3.9C14.9988 2.86602 14.5875 1.87473 13.8564 1.1436C13.1253 0.412465 12.134 0.00119099 11.1 0ZM14.4 11.1C14.399 11.9749 14.051 12.8137 13.4324 13.4324C12.8137 14.051 11.9749 14.399 11.1 14.4H3.9C3.02509 14.399 2.1863 14.051 1.56764 13.4324C0.948989 12.8137 0.600993 11.9749 0.6 11.1V3.9C0.600993 3.02509 0.948989 2.1863 1.56764 1.56764C2.1863 0.948989 3.02509 0.600993 3.9 0.6H11.1C11.9749 0.600993 12.8137 0.948989 13.4324 1.56764C14.051 2.1863 14.399 3.02509 14.4 3.9V11.1ZM12 3.6C12 3.71867 11.9648 3.83467 11.8989 3.93334C11.833 4.03201 11.7392 4.10892 11.6296 4.15433C11.52 4.19974 11.3993 4.21162 11.2829 4.18847C11.1666 4.16532 11.0596 4.10818 10.9757 4.02426C10.8918 3.94035 10.8347 3.83344 10.8115 3.71705C10.7884 3.60067 10.8003 3.48003 10.8457 3.37039C10.8911 3.26075 10.968 3.16705 11.0667 3.10112C11.1653 3.03519 11.2813 3 11.4 3C11.5591 3 11.7117 3.06321 11.8243 3.17574C11.9368 3.28826 12 3.44087 12 3.6Z" fill="white"/>
</svg>
