<svg width="30" height="30" viewBox="0 0 30 30" fill="none" xmlns="http://www.w3.org/2000/svg">
<g clip-path="url(#clip0_246_1299)">
<path d="M15.5 10C14.4122 10 13.3488 10.3226 12.4444 10.9269C11.5399 11.5313 10.8349 12.3902 10.4187 13.3952C10.0024 14.4002 9.89346 15.5061 10.1057 16.573C10.3179 17.6399 10.8417 18.6199 11.6109 19.3891C12.3801 20.1583 13.3601 20.6821 14.427 20.8943C15.4939 21.1065 16.5998 20.9976 17.6048 20.5813C18.6098 20.1651 19.4687 19.4601 20.0731 18.5556C20.6774 17.6512 21 16.5878 21 15.5C20.9983 14.0418 20.4184 12.6438 19.3873 11.6127C18.3562 10.5816 16.9582 10.0017 15.5 10ZM15.5 20C14.61 20 13.74 19.7361 12.9999 19.2416C12.2599 18.7471 11.6831 18.0443 11.3425 17.2221C11.0019 16.3998 10.9128 15.495 11.0865 14.6221C11.2601 13.7492 11.6887 12.9474 12.318 12.318C12.9474 11.6887 13.7492 11.2601 14.6221 11.0865C15.495 10.9128 16.3998 11.0019 17.2221 11.3425C18.0443 11.6831 18.7471 12.2599 19.2416 12.9999C19.7361 13.74 20 14.61 20 15.5C20 16.6935 19.5259 17.8381 18.682 18.682C17.8381 19.5259 16.6935 20 15.5 20ZM21.5 3H9.5C7.7767 3.00198 6.12455 3.68744 4.906 4.906C3.68744 6.12455 3.00198 7.7767 3 9.5V21.5C3.00198 23.2233 3.68744 24.8754 4.906 26.094C6.12455 27.3126 7.7767 27.998 9.5 28H21.5C23.2233 27.998 24.8754 27.3126 26.094 26.094C27.3126 24.8754 27.998 23.2233 28 21.5V9.5C27.998 7.7767 27.3126 6.12455 26.094 4.906C24.8754 3.68744 23.2233 3.00198 21.5 3ZM27 21.5C26.9983 22.9582 26.4184 24.3562 25.3873 25.3873C24.3562 26.4184 22.9582 26.9983 21.5 27H9.5C8.04182 26.9983 6.64383 26.4184 5.61274 25.3873C4.58165 24.3562 4.00165 22.9582 4 21.5V9.5C4.00165 8.04182 4.58165 6.64383 5.61274 5.61274C6.64383 4.58165 8.04182 4.00165 9.5 4H21.5C22.9582 4.00165 24.3562 4.58165 25.3873 5.61274C26.4184 6.64383 26.9983 8.04182 27 9.5V21.5ZM23 9C23 9.19778 22.9414 9.39112 22.8315 9.55557C22.7216 9.72002 22.5654 9.84819 22.3827 9.92388C22.2 9.99957 21.9989 10.0194 21.8049 9.98079C21.6109 9.9422 21.4327 9.84696 21.2929 9.70711C21.153 9.56725 21.0578 9.38907 21.0192 9.19509C20.9806 9.00111 21.0004 8.80004 21.0761 8.61732C21.1518 8.43459 21.28 8.27841 21.4444 8.16853C21.6089 8.05865 21.8022 8 22 8C22.2652 8 22.5196 8.10536 22.7071 8.29289C22.8946 8.48043 23 8.73478 23 9Z" fill="#4D4A99"/>
</g>
<defs>
<clipPath id="clip0_246_1299">
<rect width="30" height="30" fill="white"/>
</clipPath>
</defs>
</svg>
