<svg width="173" height="55" viewBox="0 0 173 55" fill="none" xmlns="http://www.w3.org/2000/svg">
<path d="M35.3355 54.9218V53.1084L35.2854 52.8114V49.7785C35.2854 49.0803 35.0737 48.5435 34.6504 48.1683C34.2382 47.7931 33.62 47.6055 32.7956 47.6055C32.2275 47.6055 31.6872 47.6941 31.1748 47.8713C30.6624 48.0485 30.2279 48.283 29.8715 48.5748L29.3367 47.7462C29.7823 47.3919 30.317 47.1209 30.9409 46.9333C31.5647 46.7353 32.2219 46.6363 32.9126 46.6363C34.0489 46.6363 34.9233 46.902 35.536 47.4336C36.1598 47.9547 36.4718 48.752 36.4718 49.8254V54.9218H35.3355ZM32.3111 55C31.6538 55 31.0801 54.901 30.59 54.703C30.111 54.4945 29.7433 54.2131 29.4871 53.8588C29.2309 53.494 29.1028 53.0771 29.1028 52.6081C29.1028 52.1808 29.2086 51.7952 29.4203 51.4513C29.6431 51.0969 29.9996 50.8155 30.4897 50.6071C30.991 50.3882 31.6594 50.2788 32.4949 50.2788H35.5193V51.1074H32.5283C31.6817 51.1074 31.0913 51.2481 30.7571 51.5294C30.434 51.8108 30.2725 52.16 30.2725 52.5769C30.2725 53.0459 30.4674 53.4211 30.8573 53.7024C31.2472 53.9838 31.7931 54.1245 32.4949 54.1245C33.1632 54.1245 33.7369 53.9838 34.216 53.7024C34.7061 53.4106 35.0626 52.9938 35.2854 52.4518L35.5527 53.2178C35.3299 53.7598 34.94 54.1923 34.3831 54.5154C33.8372 54.8385 33.1465 55 32.3111 55Z" fill="white"/>
<path d="M39.3599 54.9218V46.7144H40.4962V48.95L40.3792 48.5592C40.6243 47.9338 41.0365 47.4596 41.6157 47.1365C42.195 46.803 42.9135 46.6363 43.7713 46.6363V47.715C43.7267 47.715 43.6821 47.715 43.6376 47.715C43.593 47.7045 43.5485 47.6993 43.5039 47.6993C42.5793 47.6993 41.8552 47.9651 41.3317 48.4966C40.8081 49.0177 40.5463 49.7629 40.5463 50.7322V54.9218H39.3599Z" fill="white"/>
<path d="M49.0962 55C48.2495 55 47.4865 54.8228 46.8069 54.4685C46.1386 54.1037 45.6094 53.6087 45.2195 52.9833C44.8296 52.3476 44.6347 51.6232 44.6347 50.8103C44.6347 49.987 44.8296 49.2626 45.2195 48.6373C45.6094 48.012 46.1386 47.5222 46.8069 47.1678C47.4753 46.8135 48.2384 46.6363 49.0962 46.6363C49.9651 46.6363 50.7337 46.8135 51.4021 47.1678C52.0816 47.5222 52.6108 48.012 52.9895 48.6373C53.3794 49.2626 53.5743 49.987 53.5743 50.8103C53.5743 51.6232 53.3794 52.3476 52.9895 52.9833C52.6108 53.6087 52.0816 54.1037 51.4021 54.4685C50.7226 54.8228 49.9539 55 49.0962 55ZM49.0962 54.0151C49.7311 54.0151 50.2937 53.8848 50.7838 53.6243C51.274 53.3533 51.6583 52.9781 51.9368 52.4987C52.2264 52.0089 52.3712 51.4461 52.3712 50.8103C52.3712 50.1642 52.2264 49.6014 51.9368 49.1219C51.6583 48.6425 51.274 48.2725 50.7838 48.012C50.2937 47.741 49.7367 47.6055 49.1129 47.6055C48.489 47.6055 47.9321 47.741 47.4419 48.012C46.9518 48.2725 46.5619 48.6425 46.2722 49.1219C45.9826 49.6014 45.8378 50.1642 45.8378 50.8103C45.8378 51.4461 45.9826 52.0089 46.2722 52.4987C46.5619 52.9781 46.9518 53.3533 47.4419 53.6243C47.9321 53.8848 48.4835 54.0151 49.0962 54.0151Z" fill="white"/>
<path d="M66.6238 46.6363C67.3367 46.6363 67.955 46.7666 68.4786 47.0271C69.0133 47.2772 69.4254 47.6629 69.7151 48.184C70.0159 48.7051 70.1662 49.3617 70.1662 50.1537V54.9218H68.9799V50.2632C68.9799 49.3981 68.7571 48.7467 68.3115 48.309C67.877 47.8609 67.2588 47.6368 66.4567 47.6368C65.8552 47.6368 65.3316 47.7566 64.886 47.9964C64.4515 48.2256 64.1118 48.5644 63.8667 49.0125C63.6328 49.4502 63.5158 49.9818 63.5158 50.6071V54.9218H62.3294V50.2632C62.3294 49.3981 62.1066 48.7467 61.661 48.309C61.2154 47.8609 60.5916 47.6368 59.7896 47.6368C59.1991 47.6368 58.6811 47.7566 58.2356 47.9964C57.79 48.2256 57.4446 48.5644 57.1996 49.0125C56.9656 49.4502 56.8487 49.9818 56.8487 50.6071V54.9218H55.6623V46.7144H56.7985V48.9343L56.6147 48.5435C56.8821 47.9495 57.311 47.4857 57.9014 47.1522C58.5029 46.8082 59.2103 46.6363 60.0235 46.6363C60.8812 46.6363 61.6109 46.8395 62.2124 47.246C62.814 47.642 63.2039 48.2413 63.3821 49.0438L62.9143 48.8718C63.1705 48.2048 63.6216 47.6681 64.2677 47.2616C64.925 46.8447 65.7103 46.6363 66.6238 46.6363Z" fill="white"/>
<path d="M78.5469 54.9218V53.1084L78.4968 52.8114V49.7785C78.4968 49.0803 78.2851 48.5435 77.8618 48.1683C77.4496 47.7931 76.8314 47.6055 76.007 47.6055C75.4389 47.6055 74.8986 47.6941 74.3862 47.8713C73.8738 48.0485 73.4393 48.283 73.0829 48.5748L72.5481 47.7462C72.9937 47.3919 73.5285 47.1209 74.1523 46.9333C74.7761 46.7353 75.4333 46.6363 76.124 46.6363C77.2603 46.6363 78.1347 46.902 78.7474 47.4336C79.3713 47.9547 79.6832 48.752 79.6832 49.8254V54.9218H78.5469ZM75.5225 55C74.8652 55 74.2915 54.901 73.8014 54.703C73.3224 54.4945 72.9548 54.2131 72.6985 53.8588C72.4423 53.494 72.3142 53.0771 72.3142 52.6081C72.3142 52.1808 72.4201 51.7952 72.6317 51.4513C72.8545 51.0969 73.211 50.8155 73.7011 50.6071C74.2024 50.3882 74.8708 50.2788 75.7063 50.2788H78.7307V51.1074H75.7397C74.8931 51.1074 74.3027 51.2481 73.9685 51.5294C73.6454 51.8108 73.4839 52.16 73.4839 52.5769C73.4839 53.0459 73.6788 53.4211 74.0687 53.7024C74.4586 53.9838 75.0045 54.1245 75.7063 54.1245C76.3747 54.1245 76.9483 53.9838 77.4274 53.7024C77.9175 53.4106 78.274 52.9938 78.4968 52.4518L78.7641 53.2178C78.5414 53.7598 78.1515 54.1923 77.5945 54.5154C77.0486 54.8385 76.3579 55 75.5225 55Z" fill="white"/>
<path d="M81.7223 47.1365L82.4575 44.26L82.5912 44.9166C82.335 44.9166 82.1177 44.8437 81.9395 44.6978C81.7724 44.5414 81.6889 44.3382 81.6889 44.0881C81.6889 43.8379 81.7724 43.6347 81.9395 43.4784C82.1177 43.3221 82.3294 43.2439 82.5745 43.2439C82.8307 43.2439 83.0368 43.3273 83.1927 43.494C83.3598 43.6503 83.4434 43.8484 83.4434 44.0881C83.4434 44.1715 83.4378 44.2548 83.4267 44.3382C83.4155 44.4216 83.3932 44.5154 83.3598 44.6196C83.3375 44.7134 83.2985 44.8333 83.2428 44.9792L82.5243 47.1365H81.7223Z" fill="white"/>
<path d="M87.7426 55C87.0185 55 86.3334 54.9062 85.6873 54.7186C85.0412 54.5206 84.5343 54.2757 84.1667 53.9838L84.7014 53.1084C85.0579 53.3585 85.5146 53.5774 86.0716 53.765C86.6286 53.9422 87.2134 54.0308 87.8261 54.0308C88.6616 54.0308 89.2631 53.9109 89.6308 53.6712C89.9984 53.4211 90.1822 53.0928 90.1822 52.6863C90.1822 52.3841 90.0763 52.1496 89.8647 51.9828C89.6642 51.8056 89.3968 51.6754 89.0626 51.592C88.7284 51.4982 88.3553 51.42 87.9431 51.3575C87.5309 51.2949 87.1187 51.222 86.7066 51.1386C86.3055 51.0552 85.9379 50.9354 85.6037 50.7791C85.2695 50.6123 84.9966 50.3882 84.785 50.1068C84.5844 49.8254 84.4842 49.4502 84.4842 48.9812C84.4842 48.5331 84.6179 48.1318 84.8852 47.7775C85.1526 47.4231 85.5425 47.147 86.0549 46.9489C86.5785 46.7405 87.2134 46.6363 87.9598 46.6363C88.5279 46.6363 89.0961 46.7092 89.6642 46.8551C90.2323 46.9906 90.7002 47.173 91.0678 47.4023L90.5498 48.2934C90.1599 48.0433 89.7422 47.8661 89.2966 47.7619C88.851 47.6472 88.4054 47.5899 87.9598 47.5899C87.1689 47.5899 86.584 47.7202 86.2053 47.9807C85.8377 48.2309 85.6539 48.5539 85.6539 48.95C85.6539 49.2626 85.7541 49.5076 85.9546 49.6847C86.1663 49.8619 86.4392 50.0026 86.7734 50.1068C87.1187 50.2006 87.4919 50.2788 87.893 50.3413C88.3051 50.4039 88.7117 50.482 89.1128 50.5758C89.5249 50.6592 89.8981 50.7791 90.2323 50.9354C90.5776 51.0813 90.8506 51.295 91.0511 51.5763C91.2627 51.8473 91.3686 52.2069 91.3686 52.655C91.3686 53.1344 91.2237 53.5513 90.9341 53.9057C90.6556 54.2496 90.2434 54.5206 89.6976 54.7186C89.1629 54.9062 88.5112 55 87.7426 55Z" fill="white"/>
<path d="M101.729 46.6363C102.441 46.6363 103.065 46.7666 103.6 47.0271C104.146 47.2772 104.569 47.6629 104.87 48.184C105.182 48.7051 105.338 49.3617 105.338 50.1537V54.9218H104.151V50.2632C104.151 49.3981 103.918 48.7467 103.45 48.309C102.993 47.8609 102.347 47.6368 101.511 47.6368C100.888 47.6368 100.342 47.7566 99.8738 47.9964C99.417 48.2256 99.0606 48.5644 98.8044 49.0125C98.5593 49.4502 98.4368 49.9818 98.4368 50.6071V54.9218H97.2504V43.3221H98.4368V48.9656L98.2028 48.5435C98.4813 47.9495 98.9269 47.4857 99.5396 47.1522C100.152 46.8082 100.882 46.6363 101.729 46.6363Z" fill="white"/>
<path d="M111.784 55C110.937 55 110.174 54.8228 109.495 54.4685C108.826 54.1037 108.297 53.6087 107.907 52.9833C107.518 52.3476 107.323 51.6232 107.323 50.8103C107.323 49.987 107.518 49.2626 107.907 48.6373C108.297 48.012 108.826 47.5222 109.495 47.1678C110.163 46.8135 110.926 46.6363 111.784 46.6363C112.653 46.6363 113.422 46.8135 114.09 47.1678C114.77 47.5222 115.299 48.012 115.677 48.6373C116.067 49.2626 116.262 49.987 116.262 50.8103C116.262 51.6232 116.067 52.3476 115.677 52.9833C115.299 53.6087 114.77 54.1037 114.09 54.4685C113.411 54.8228 112.642 55 111.784 55ZM111.784 54.0151C112.419 54.0151 112.982 53.8848 113.472 53.6243C113.962 53.3533 114.346 52.9781 114.625 52.4987C114.914 52.0089 115.059 51.4461 115.059 50.8103C115.059 50.1642 114.914 49.6014 114.625 49.1219C114.346 48.6425 113.962 48.2725 113.472 48.012C112.982 47.741 112.425 47.6055 111.801 47.6055C111.177 47.6055 110.62 47.741 110.13 48.012C109.64 48.2725 109.25 48.6425 108.96 49.1219C108.671 49.6014 108.526 50.1642 108.526 50.8103C108.526 51.4461 108.671 52.0089 108.96 52.4987C109.25 52.9781 109.64 53.3533 110.13 53.6243C110.62 53.8848 111.171 54.0151 111.784 54.0151Z" fill="white"/>
<path d="M129.312 46.6363C130.025 46.6363 130.643 46.7666 131.167 47.0271C131.701 47.2772 132.113 47.6629 132.403 48.184C132.704 48.7051 132.854 49.3617 132.854 50.1537V54.9218H131.668V50.2632C131.668 49.3981 131.445 48.7467 130.999 48.309C130.565 47.8609 129.947 47.6368 129.145 47.6368C128.543 47.6368 128.02 47.7566 127.574 47.9964C127.139 48.2256 126.8 48.5644 126.555 49.0125C126.321 49.4502 126.204 49.9818 126.204 50.6071V54.9218H125.017V50.2632C125.017 49.3981 124.795 48.7467 124.349 48.309C123.903 47.8609 123.28 47.6368 122.477 47.6368C121.887 47.6368 121.369 47.7566 120.923 47.9964C120.478 48.2256 120.133 48.5644 119.887 49.0125C119.654 49.4502 119.537 49.9818 119.537 50.6071V54.9218H118.35V46.7144H119.486V48.9343L119.303 48.5435C119.57 47.9495 119.999 47.4857 120.589 47.1522C121.191 46.8082 121.898 46.6363 122.711 46.6363C123.569 46.6363 124.299 46.8395 124.9 47.246C125.502 47.642 125.892 48.2413 126.07 49.0438L125.602 48.8718C125.858 48.2048 126.31 47.6681 126.956 47.2616C127.613 46.8447 128.398 46.6363 129.312 46.6363Z" fill="white"/>
<path d="M139.464 55C138.55 55 137.748 54.8228 137.057 54.4685C136.367 54.1037 135.826 53.6087 135.437 52.9833C135.047 52.3476 134.852 51.6232 134.852 50.8103C134.852 49.9974 135.036 49.2783 135.403 48.653C135.782 48.0276 136.294 47.5378 136.94 47.1834C137.598 46.8187 138.333 46.6363 139.146 46.6363C139.97 46.6363 140.7 46.8135 141.335 47.1678C141.981 47.5117 142.488 48.0016 142.856 48.6373C143.223 49.2626 143.407 49.987 143.407 50.8103C143.407 50.8624 143.402 50.9198 143.39 50.9823C143.39 51.0344 143.39 51.0917 143.39 51.1543H135.754V50.3257H142.755L142.288 50.654C142.288 50.0599 142.148 49.5336 141.87 49.075C141.602 48.6061 141.235 48.2413 140.767 47.9807C140.299 47.7202 139.759 47.5899 139.146 47.5899C138.545 47.5899 138.004 47.7202 137.525 47.9807C137.046 48.2413 136.673 48.6061 136.406 49.075C136.138 49.544 136.005 50.0808 136.005 50.6853V50.8572C136.005 51.4825 136.15 52.0349 136.439 52.5143C136.74 52.9833 137.152 53.3533 137.676 53.6243C138.21 53.8848 138.818 54.0151 139.497 54.0151C140.032 54.0151 140.527 53.9265 140.984 53.7493C141.452 53.5722 141.853 53.3012 142.187 52.9364L142.856 53.6556C142.466 54.0933 141.976 54.4268 141.385 54.6561C140.806 54.8854 140.165 55 139.464 55Z" fill="white"/>
<path fill-rule="evenodd" clip-rule="evenodd" d="M1.15646 1.55219C1.15646 1.55219 16.7518 19.1021 17.5643 19.1445C18.0709 19.1709 21.1054 16.2464 24.3075 12.6462L30.1286 6.1L30.588 35.1862H36.4832L36.2565 17.793V0.000369118L33.4987 0C32.2343 0.000369118 30.97 0.000369118 30.97 0.000369118C30.97 0.000369118 29.7311 1.43421 29.2842 1.99958C28.0198 3.59896 25.9142 6.43603 23.5304 9.10682C21.8395 11.0013 19.0301 13.8162 19.0301 13.8162L6.76764 0H0L1.15646 1.55219ZM44.8793 35.1862H67.7615L67.1968 32.3873L50.7796 31.9299V16.0561L65.511 15.5939L66.0757 12.795H50.7796V3.19874H67.6376V0H44.8793V35.1862ZM74.3808 35.2358L95.0318 34.7863V33.5868C95.0318 32.6296 93.5424 32.3409 87.6565 32.1562L80.2811 31.9251V0H74.3808V35.2358ZM100.511 35.1862H106.411V0H100.511V35.1862ZM111.467 0.149541C111.467 0.149541 117.579 8.9261 124.533 18.2192L137.177 35.115L141.813 35.1862L141.811 0H138.441L138.285 13.4251L138.02 26.4496L128.321 13.4251L118.631 0.149541H111.467ZM150.242 35.1862H173V31.9874H156.142V15.9937H171.314V12.795H156.142V3.19874H173V0H150.242V35.1862ZM1.89147 22.3912V35.1862H5.26306L5.23609 23.7907C5.22768 20.2296 5.26154 11.9957 5.26154 11.9957V11.0826L3.99719 9.5966C3.99719 9.5966 2.18664 9.5966 1.88994 9.5966C1.88994 9.5966 1.89147 15.354 1.89147 22.3912ZM114.84 35.1862H117.369V24.488C117.369 15.9545 117.369 14.3947 117.369 14.3947L114.84 11.7994V35.1862Z" fill="white"/>
</svg>
