<svg width="90" height="29" viewBox="0 0 90 29" fill="none" xmlns="http://www.w3.org/2000/svg">
<path d="M18.3826 28.9588V28.0026L18.3566 27.846V26.2469C18.3566 25.8787 18.2464 25.5957 18.0262 25.3978C17.8118 25.2 17.4902 25.1011 17.0613 25.1011C16.7658 25.1011 16.4847 25.1478 16.2181 25.2412C15.9515 25.3347 15.7255 25.4583 15.5401 25.6122L15.2619 25.1753C15.4937 24.9884 15.7719 24.8456 16.0964 24.7467C16.4209 24.6422 16.7629 24.59 17.1222 24.59C17.7133 24.59 18.1682 24.7302 18.4869 25.0104C18.8115 25.2852 18.9737 25.7056 18.9737 26.2716V28.9588H18.3826ZM16.8092 29C16.4673 29 16.1688 28.9478 15.9139 28.8434C15.6647 28.7335 15.4734 28.5851 15.3401 28.3983C15.2068 28.2059 15.1402 27.9861 15.1402 27.7388C15.1402 27.5135 15.1952 27.3102 15.3054 27.1289C15.4213 26.942 15.6067 26.7936 15.8617 26.6837C16.1225 26.5683 16.4702 26.5106 16.9048 26.5106H18.4783V26.9475H16.9222C16.4818 26.9475 16.1746 27.0217 16.0008 27.1701C15.8327 27.3184 15.7487 27.5025 15.7487 27.7223C15.7487 27.9696 15.8501 28.1675 16.0529 28.3158C16.2558 28.4642 16.5397 28.5384 16.9048 28.5384C17.2526 28.5384 17.551 28.4642 17.8002 28.3158C18.0552 28.162 18.2406 27.9422 18.3566 27.6564L18.4956 28.0603C18.3797 28.3461 18.1769 28.5741 17.8871 28.7445C17.6032 28.9148 17.2439 29 16.8092 29Z" fill="white"/>
<path d="M20.4763 28.9588V24.6313H21.0674V25.81L21.0065 25.6039C21.134 25.2742 21.3484 25.0242 21.6498 24.8538C21.9512 24.678 22.3249 24.59 22.7712 24.59V25.1588C22.748 25.1588 22.7248 25.1588 22.7016 25.1588C22.6785 25.1533 22.6553 25.1506 22.6321 25.1506C22.1511 25.1506 21.7744 25.2907 21.502 25.5709C21.2296 25.8457 21.0935 26.2386 21.0935 26.7497V28.9588H20.4763Z" fill="white"/>
<path d="M25.5414 29C25.1009 29 24.7039 28.9066 24.3504 28.7197C24.0027 28.5274 23.7274 28.2664 23.5246 27.9367C23.3218 27.6015 23.2204 27.2195 23.2204 26.7909C23.2204 26.3568 23.3218 25.9749 23.5246 25.6451C23.7274 25.3154 24.0027 25.0571 24.3504 24.8703C24.6981 24.6835 25.0951 24.59 25.5414 24.59C25.9934 24.59 26.3933 24.6835 26.741 24.8703C27.0945 25.0571 27.3698 25.3154 27.5668 25.6451C27.7696 25.9749 27.871 26.3568 27.871 26.7909C27.871 27.2195 27.7696 27.6015 27.5668 27.9367C27.3698 28.2664 27.0945 28.5274 26.741 28.7197C26.3875 28.9066 25.9876 29 25.5414 29ZM25.5414 28.4807C25.8717 28.4807 26.1643 28.412 26.4193 28.2746C26.6743 28.1317 26.8743 27.9339 27.0191 27.6811C27.1698 27.4229 27.2452 27.1261 27.2452 26.7909C27.2452 26.4502 27.1698 26.1534 27.0191 25.9007C26.8743 25.6479 26.6743 25.4528 26.4193 25.3154C26.1643 25.1725 25.8746 25.1011 25.55 25.1011C25.2255 25.1011 24.9358 25.1725 24.6808 25.3154C24.4258 25.4528 24.2229 25.6479 24.0723 25.9007C23.9216 26.1534 23.8462 26.4502 23.8462 26.7909C23.8462 27.1261 23.9216 27.4229 24.0723 27.6811C24.2229 27.9339 24.4258 28.1317 24.6808 28.2746C24.9358 28.412 25.2226 28.4807 25.5414 28.4807Z" fill="white"/>
<path d="M34.6598 24.59C35.0307 24.59 35.3523 24.6587 35.6247 24.7961C35.9029 24.928 36.1173 25.1313 36.268 25.4061C36.4244 25.6809 36.5027 26.0271 36.5027 26.4447V28.9588H35.8855V26.5024C35.8855 26.0463 35.7696 25.7028 35.5378 25.472C35.3117 25.2357 34.9901 25.1176 34.5729 25.1176C34.2599 25.1176 33.9875 25.1808 33.7557 25.3072C33.5297 25.4281 33.353 25.6067 33.2255 25.843C33.1038 26.0738 33.0429 26.354 33.0429 26.6837V28.9588H32.4257V26.5024C32.4257 26.0463 32.3098 25.7028 32.078 25.472C31.8462 25.2357 31.5217 25.1176 31.1044 25.1176C30.7972 25.1176 30.5278 25.1808 30.296 25.3072C30.0641 25.4281 29.8845 25.6067 29.757 25.843C29.6353 26.0738 29.5744 26.354 29.5744 26.6837V28.9588H28.9573V24.6313H29.5484V25.8017L29.4527 25.5957C29.5918 25.2824 29.815 25.0379 30.1221 24.8621C30.435 24.6807 30.803 24.59 31.2261 24.59C31.6723 24.59 32.0519 24.6972 32.3649 24.9115C32.6778 25.1203 32.8806 25.4363 32.9734 25.8595L32.73 25.7688C32.8633 25.4171 33.098 25.1341 33.4341 24.9198C33.776 24.6999 34.1846 24.59 34.6598 24.59Z" fill="white"/>
<path d="M40.8626 28.9588V28.0026L40.8365 27.846V26.2469C40.8365 25.8787 40.7264 25.5957 40.5062 25.3978C40.2917 25.2 39.9701 25.1011 39.5412 25.1011C39.2457 25.1011 38.9646 25.1478 38.698 25.2412C38.4315 25.3347 38.2054 25.4583 38.02 25.6122L37.7418 25.1753C37.9736 24.9884 38.2518 24.8456 38.5763 24.7467C38.9009 24.6422 39.2428 24.59 39.6021 24.59C40.1932 24.59 40.6481 24.7302 40.9669 25.0104C41.2914 25.2852 41.4537 25.7056 41.4537 26.2716V28.9588H40.8626ZM39.2891 29C38.9472 29 38.6488 28.9478 38.3938 28.8434C38.1446 28.7335 37.9533 28.5851 37.82 28.3983C37.6868 28.2059 37.6201 27.9861 37.6201 27.7388C37.6201 27.5135 37.6752 27.3102 37.7853 27.1289C37.9012 26.942 38.0866 26.7936 38.3416 26.6837C38.6024 26.5683 38.9501 26.5106 39.3848 26.5106H40.9582V26.9475H39.4022C38.9617 26.9475 38.6546 27.0217 38.4807 27.1701C38.3126 27.3184 38.2286 27.5025 38.2286 27.7223C38.2286 27.9696 38.33 28.1675 38.5329 28.3158C38.7357 28.4642 39.0197 28.5384 39.3848 28.5384C39.7325 28.5384 40.0309 28.4642 40.2801 28.3158C40.5351 28.162 40.7206 27.9422 40.8365 27.6564L40.9756 28.0603C40.8597 28.3461 40.6568 28.5741 40.3671 28.7445C40.0831 28.9148 39.7238 29 39.2891 29Z" fill="white"/>
<path d="M42.5145 24.8538L42.897 23.3371L42.9665 23.6833C42.8332 23.6833 42.7202 23.6448 42.6275 23.5679C42.5406 23.4855 42.4971 23.3783 42.4971 23.2464C42.4971 23.1146 42.5406 23.0074 42.6275 22.925C42.7202 22.8425 42.8303 22.8013 42.9578 22.8013C43.0911 22.8013 43.1983 22.8453 43.2795 22.9332C43.3664 23.0156 43.4098 23.12 43.4098 23.2464C43.4098 23.2904 43.4069 23.3344 43.4012 23.3783C43.3954 23.4223 43.3838 23.4717 43.3664 23.5267C43.3548 23.5762 43.3345 23.6394 43.3055 23.7163L42.9317 24.8538H42.5145Z" fill="white"/>
<path d="M45.6464 29C45.2697 29 44.9133 28.9505 44.5772 28.8516C44.2411 28.7472 43.9774 28.6181 43.7861 28.4642L44.0643 28.0026C44.2498 28.1345 44.4874 28.2499 44.7771 28.3488C45.0669 28.4422 45.3712 28.4889 45.6899 28.4889C46.1245 28.4889 46.4375 28.4257 46.6287 28.2994C46.82 28.1675 46.9156 27.9944 46.9156 27.7801C46.9156 27.6207 46.8605 27.497 46.7504 27.4091C46.6461 27.3157 46.507 27.247 46.3332 27.203C46.1593 27.1536 45.9652 27.1124 45.7507 27.0794C45.5363 27.0464 45.3219 27.008 45.1075 26.964C44.8988 26.92 44.7076 26.8568 44.5337 26.7744C44.3599 26.6865 44.2179 26.5683 44.1078 26.42C44.0035 26.2716 43.9513 26.0738 43.9513 25.8265C43.9513 25.5902 44.0209 25.3786 44.1599 25.1918C44.299 25.0049 44.5019 24.8593 44.7684 24.7549C45.0408 24.645 45.3711 24.59 45.7594 24.59C46.055 24.59 46.3506 24.6285 46.6461 24.7054C46.9417 24.7769 47.1851 24.873 47.3763 24.9939L47.1068 25.4638C46.904 25.3319 46.6867 25.2385 46.4549 25.1835C46.2231 25.1231 45.9912 25.0929 45.7594 25.0929C45.348 25.0929 45.0437 25.1615 44.8467 25.2989C44.6554 25.4308 44.5598 25.6012 44.5598 25.81C44.5598 25.9749 44.612 26.104 44.7163 26.1974C44.8264 26.2908 44.9684 26.365 45.1422 26.42C45.3219 26.4694 45.516 26.5106 45.7247 26.5436C45.9391 26.5766 46.1506 26.6178 46.3592 26.6673C46.5737 26.7112 46.7678 26.7744 46.9417 26.8568C47.1213 26.9338 47.2633 27.0464 47.3676 27.1948C47.4777 27.3377 47.5328 27.5273 47.5328 27.7636C47.5328 28.0163 47.4574 28.2362 47.3068 28.423C47.1619 28.6043 46.9475 28.7472 46.6635 28.8516C46.3853 28.9505 46.0463 29 45.6464 29Z" fill="white"/>
<path d="M52.9224 24.59C53.2933 24.59 53.6178 24.6587 53.896 24.7961C54.1799 24.928 54.4002 25.1313 54.5566 25.4061C54.7189 25.6809 54.8 26.0271 54.8 26.4447V28.9588H54.1828V26.5024C54.1828 26.0463 54.0611 25.7028 53.8177 25.472C53.5801 25.2357 53.244 25.1176 52.8094 25.1176C52.4848 25.1176 52.2009 25.1808 51.9575 25.3072C51.7199 25.4281 51.5344 25.6067 51.4011 25.843C51.2736 26.0738 51.2099 26.354 51.2099 26.6837V28.9588H50.5927V22.8425H51.2099V25.8182L51.0882 25.5957C51.2331 25.2824 51.4649 25.0379 51.7836 24.8621C52.1023 24.6807 52.4819 24.59 52.9224 24.59Z" fill="white"/>
<path d="M58.1536 29C57.7131 29 57.3162 28.9066 56.9627 28.7197C56.6149 28.5274 56.3397 28.2664 56.1368 27.9367C55.934 27.6015 55.8326 27.2195 55.8326 26.7909C55.8326 26.3568 55.934 25.9749 56.1368 25.6451C56.3397 25.3154 56.6149 25.0571 56.9627 24.8703C57.3104 24.6835 57.7074 24.59 58.1536 24.59C58.6056 24.59 59.0055 24.6835 59.3532 24.8703C59.7067 25.0571 59.982 25.3154 60.179 25.6451C60.3819 25.9749 60.4833 26.3568 60.4833 26.7909C60.4833 27.2195 60.3819 27.6015 60.179 27.9367C59.982 28.2664 59.7067 28.5274 59.3532 28.7197C58.9997 28.9066 58.5998 29 58.1536 29ZM58.1536 28.4807C58.4839 28.4807 58.7766 28.412 59.0316 28.2746C59.2866 28.1317 59.4865 27.9339 59.6314 27.6811C59.782 27.4229 59.8574 27.1261 59.8574 26.7909C59.8574 26.4502 59.782 26.1534 59.6314 25.9007C59.4865 25.6479 59.2866 25.4528 59.0316 25.3154C58.7766 25.1725 58.4868 25.1011 58.1623 25.1011C57.8377 25.1011 57.548 25.1725 57.293 25.3154C57.038 25.4528 56.8352 25.6479 56.6845 25.9007C56.5338 26.1534 56.4585 26.4502 56.4585 26.7909C56.4585 27.1261 56.5338 27.4229 56.6845 27.6811C56.8352 27.9339 57.038 28.1317 57.293 28.2746C57.548 28.412 57.8348 28.4807 58.1536 28.4807Z" fill="white"/>
<path d="M67.272 24.59C67.6429 24.59 67.9645 24.6587 68.2369 24.7961C68.5151 24.928 68.7295 25.1313 68.8802 25.4061C69.0367 25.6809 69.1149 26.0271 69.1149 26.4447V28.9588H68.4977V26.5024C68.4977 26.0463 68.3818 25.7028 68.15 25.472C67.924 25.2357 67.6023 25.1176 67.1851 25.1176C66.8721 25.1176 66.5998 25.1808 66.368 25.3072C66.1419 25.4281 65.9652 25.6067 65.8377 25.843C65.716 26.0738 65.6551 26.354 65.6551 26.6837V28.9588H65.0379V26.5024C65.0379 26.0463 64.922 25.7028 64.6902 25.472C64.4584 25.2357 64.1339 25.1176 63.7166 25.1176C63.4095 25.1176 63.14 25.1808 62.9082 25.3072C62.6764 25.4281 62.4967 25.6067 62.3692 25.843C62.2475 26.0738 62.1867 26.354 62.1867 26.6837V28.9588H61.5695V24.6313H62.1606V25.8017L62.065 25.5957C62.2041 25.2824 62.4272 25.0379 62.7343 24.8621C63.0473 24.6807 63.4153 24.59 63.8383 24.59C64.2846 24.59 64.6641 24.6972 64.9771 24.9115C65.29 25.1203 65.4929 25.4363 65.5856 25.8595L65.3422 25.7688C65.4755 25.4171 65.7102 25.1341 66.0463 24.9198C66.3882 24.6999 66.7968 24.59 67.272 24.59Z" fill="white"/>
<path d="M72.5533 29C72.0781 29 71.6609 28.9066 71.3016 28.7197C70.9423 28.5274 70.6612 28.2664 70.4584 27.9367C70.2555 27.6015 70.1541 27.2195 70.1541 26.7909C70.1541 26.3623 70.2497 25.9831 70.441 25.6534C70.638 25.3237 70.9046 25.0654 71.2407 24.8785C71.5826 24.6862 71.9651 24.59 72.3882 24.59C72.817 24.59 73.1966 24.6835 73.5269 24.8703C73.8631 25.0516 74.1267 25.3099 74.318 25.6451C74.5092 25.9749 74.6049 26.3568 74.6049 26.7909C74.6049 26.8184 74.602 26.8486 74.5962 26.8816C74.5962 26.909 74.5962 26.9393 74.5962 26.9722H70.6235V26.5354H74.2658L74.0224 26.7085C74.0224 26.3952 73.95 26.1177 73.8051 25.8759C73.666 25.6286 73.4748 25.4363 73.2314 25.2989C72.988 25.1615 72.7069 25.0929 72.3882 25.0929C72.0752 25.0929 71.7942 25.1615 71.545 25.2989C71.2958 25.4363 71.1016 25.6286 70.9625 25.8759C70.8235 26.1232 70.7539 26.4062 70.7539 26.725V26.8156C70.7539 27.1453 70.8293 27.4366 70.9799 27.6894C71.1364 27.9367 71.3508 28.1317 71.6232 28.2746C71.9014 28.412 72.2172 28.4807 72.5707 28.4807C72.8489 28.4807 73.1068 28.434 73.3444 28.3406C73.5878 28.2471 73.7964 28.1043 73.9703 27.9119L74.318 28.2911C74.1152 28.5219 73.8602 28.6978 73.553 28.8187C73.2517 28.9396 72.9184 29 72.5533 29Z" fill="white"/>
<path fill-rule="evenodd" clip-rule="evenodd" d="M0.601625 0.818429C0.601625 0.818429 8.7148 10.072 9.13752 10.0944C9.40106 10.1083 10.9797 8.56629 12.6455 6.66801L15.6738 3.21637L15.9128 18.5527H18.9797L18.8617 9.38177V0.000194626L17.427 0C16.7693 0.000194626 16.1115 0.000194626 16.1115 0.000194626C16.1115 0.000194626 15.467 0.756221 15.2345 1.05433C14.5768 1.89763 13.4814 3.39354 12.2412 4.80178C11.3616 5.80066 9.90007 7.28489 9.90007 7.28489L3.52074 0H0L0.601625 0.818429ZM23.3476 18.5527H35.2517L34.9579 17.0769L26.4171 16.8357V8.46594L34.0808 8.22223L34.3747 6.74644H26.4171V1.68661H35.1872V0H23.3476V18.5527ZM38.6952 18.5789L49.4385 18.3419V17.7094C49.4385 17.2047 48.6637 17.0525 45.6016 16.9551L41.7647 16.8332V0H38.6952V18.5789ZM52.2888 18.5527H55.3583V0H52.2888V18.5527ZM57.9885 0.0788491C57.9885 0.0788491 61.1685 4.70649 64.7861 9.60651L71.3636 18.5152L73.7754 18.5527L73.7746 0H72.0214L71.9402 7.0787L71.8022 13.9462L66.7567 7.0787L61.7158 0.0788491H57.9885ZM78.1604 18.5527H90V16.8661H81.23V8.43305H89.123V6.74644H81.23V1.68661H90V0H78.1604V18.5527ZM0.983999 11.8063V18.5527H2.73801L2.72398 12.5442C2.7196 10.6665 2.73722 6.32498 2.73722 6.32498V5.84358L2.07946 5.06003C2.07946 5.06003 1.13756 5.06003 0.983205 5.06003C0.983205 5.06003 0.983999 8.09573 0.983999 11.8063ZM59.7433 18.5527H61.0588V12.9118C61.0588 8.41239 61.0588 7.58994 61.0588 7.58994L59.7433 6.22148V18.5527Z" fill="white"/>
</svg>
