<svg width="107" height="35" viewBox="0 0 107 35" fill="none" xmlns="http://www.w3.org/2000/svg">
<mask id="path-1-outside-1_184_481" maskUnits="userSpaceOnUse" x="17" y="26" width="72" height="9" fill="black">
<rect fill="white" x="17" y="26" width="72" height="9"/>
<path d="M21.8549 34.2913V33.1591L21.8239 32.9736V31.08C21.8239 30.644 21.693 30.3089 21.4312 30.0746C21.1762 29.8404 20.7939 29.7233 20.284 29.7233C19.9326 29.7233 19.5985 29.7786 19.2815 29.8892C18.9646 29.9998 18.6959 30.1462 18.4754 30.3284L18.1447 29.8111C18.4203 29.5899 18.751 29.4207 19.1368 29.3035C19.5227 29.1799 19.9292 29.1181 20.3564 29.1181C21.0591 29.1181 21.6 29.284 21.9789 29.6159C22.3648 29.9413 22.5577 30.4391 22.5577 31.1093V34.2913H21.8549ZM19.9843 34.3401C19.5778 34.3401 19.223 34.2783 18.9198 34.1547C18.6235 34.0245 18.3962 33.8488 18.2377 33.6276C18.0792 33.3998 18 33.1395 18 32.8467C18 32.5799 18.0655 32.3392 18.1964 32.1244C18.3342 31.9032 18.5546 31.7275 18.8578 31.5973C19.1678 31.4607 19.5812 31.3924 20.098 31.3924H21.9686V31.9097H20.1186C19.595 31.9097 19.2298 31.9975 19.0232 32.1732C18.8233 32.3489 18.7234 32.5669 18.7234 32.8272C18.7234 33.12 18.844 33.3543 19.0852 33.53C19.3263 33.7057 19.6639 33.7935 20.098 33.7935C20.5114 33.7935 20.8662 33.7057 21.1625 33.53C21.4656 33.3478 21.6861 33.0875 21.8239 32.7491L21.9893 33.2274C21.8515 33.5658 21.6103 33.8358 21.2658 34.0375C20.9282 34.2393 20.501 34.3401 19.9843 34.3401Z"/>
<path d="M24.344 34.2913V29.1669H25.0468V30.5627L24.9744 30.3187C25.126 29.9282 25.3809 29.6322 25.7392 29.4304C26.0975 29.2222 26.5419 29.1181 27.0724 29.1181V29.7916C27.0448 29.7916 27.0173 29.7916 26.9897 29.7916C26.9622 29.7851 26.9346 29.7818 26.907 29.7818C26.3352 29.7818 25.8873 29.9478 25.5635 30.2796C25.2397 30.605 25.0778 31.0702 25.0778 31.6754V34.2913H24.344Z"/>
<path d="M30.3658 34.3401C29.8422 34.3401 29.3702 34.2295 28.95 34.0082C28.5366 33.7805 28.2093 33.4714 27.9681 33.081C27.727 32.684 27.6064 32.2318 27.6064 31.7242C27.6064 31.2102 27.727 30.7579 27.9681 30.3675C28.2093 29.977 28.5366 29.6712 28.95 29.45C29.3633 29.2287 29.8353 29.1181 30.3658 29.1181C30.9032 29.1181 31.3786 29.2287 31.792 29.45C32.2123 29.6712 32.5396 29.977 32.7739 30.3675C33.015 30.7579 33.1356 31.2102 33.1356 31.7242C33.1356 32.2318 33.015 32.684 32.7739 33.081C32.5396 33.4714 32.2123 33.7805 31.792 34.0082C31.3718 34.2295 30.8964 34.3401 30.3658 34.3401ZM30.3658 33.7252C30.7586 33.7252 31.1065 33.6438 31.4097 33.4812C31.7128 33.312 31.9505 33.0777 32.1228 32.7784C32.3019 32.4725 32.3915 32.1212 32.3915 31.7242C32.3915 31.3208 32.3019 30.9694 32.1228 30.6701C31.9505 30.3707 31.7128 30.1397 31.4097 29.977C31.1065 29.8079 30.762 29.7233 30.3762 29.7233C29.9903 29.7233 29.6458 29.8079 29.3427 29.977C29.0395 30.1397 28.7984 30.3707 28.6192 30.6701C28.4401 30.9694 28.3505 31.3208 28.3505 31.7242C28.3505 32.1212 28.4401 32.4725 28.6192 32.7784C28.7984 33.0777 29.0395 33.312 29.3427 33.4812C29.6458 33.6438 29.9869 33.7252 30.3658 33.7252Z"/>
<path d="M41.2066 29.1181C41.6476 29.1181 42.03 29.1994 42.3538 29.3621C42.6845 29.5183 42.9394 29.759 43.1186 30.0844C43.3046 30.4098 43.3976 30.8197 43.3976 31.3143V34.2913H42.6638V31.3826C42.6638 30.8425 42.526 30.4358 42.2504 30.1625C41.9817 29.8827 41.5993 29.7428 41.1033 29.7428C40.7312 29.7428 40.4074 29.8176 40.1318 29.9673C39.8631 30.1104 39.6529 30.3219 39.5014 30.6017C39.3567 30.875 39.2843 31.2069 39.2843 31.5973V34.2913H38.5506V31.3826C38.5506 30.8425 38.4128 30.4358 38.1372 30.1625C37.8616 29.8827 37.4757 29.7428 36.9797 29.7428C36.6145 29.7428 36.2941 29.8176 36.0185 29.9673C35.7429 30.1104 35.5293 30.3219 35.3778 30.6017C35.2331 30.875 35.1607 31.2069 35.1607 31.5973V34.2913H34.427V29.1669H35.1297V30.5529L35.016 30.3089C35.1814 29.938 35.4467 29.6484 35.8118 29.4402C36.1839 29.2255 36.6214 29.1181 37.1243 29.1181C37.6549 29.1181 38.1062 29.245 38.4782 29.4988C38.8503 29.746 39.0914 30.1202 39.2017 30.6213L38.9123 30.5139C39.0708 30.0974 39.3498 29.7623 39.7494 29.5085C40.1559 29.2482 40.6417 29.1181 41.2066 29.1181Z"/>
<path d="M48.581 34.2913V33.1591L48.55 32.9736V31.08C48.55 30.644 48.4191 30.3089 48.1573 30.0746C47.9024 29.8404 47.52 29.7233 47.0101 29.7233C46.6588 29.7233 46.3246 29.7786 46.0077 29.8892C45.6907 29.9998 45.422 30.1462 45.2015 30.3284L44.8708 29.8111C45.1464 29.5899 45.4771 29.4207 45.863 29.3035C46.2488 29.1799 46.6553 29.1181 47.0825 29.1181C47.7853 29.1181 48.3261 29.284 48.7051 29.6159C49.0909 29.9413 49.2838 30.4391 49.2838 31.1093V34.2913H48.581ZM46.7104 34.3401C46.3039 34.3401 45.9491 34.2783 45.6459 34.1547C45.3497 34.0245 45.1223 33.8488 44.9638 33.6276C44.8054 33.3998 44.7261 33.1395 44.7261 32.8467C44.7261 32.5799 44.7916 32.3392 44.9225 32.1244C45.0603 31.9032 45.2808 31.7275 45.5839 31.5973C45.894 31.4607 46.3074 31.3924 46.8241 31.3924H48.6947V31.9097H46.8448C46.3211 31.9097 45.956 31.9975 45.7493 32.1732C45.5495 32.3489 45.4496 32.5669 45.4496 32.8272C45.4496 33.12 45.5701 33.3543 45.8113 33.53C46.0524 33.7057 46.39 33.7935 46.8241 33.7935C47.2375 33.7935 47.5923 33.7057 47.8886 33.53C48.1918 33.3478 48.4122 33.0875 48.55 32.7491L48.7154 33.2274C48.5776 33.5658 48.3364 33.8358 47.992 34.0375C47.6543 34.2393 47.2272 34.3401 46.7104 34.3401Z"/>
<path d="M50.545 29.4304L50.9997 27.6345L51.0824 28.0444C50.9239 28.0444 50.7896 27.9989 50.6793 27.9078C50.576 27.8101 50.5243 27.6833 50.5243 27.5271C50.5243 27.3709 50.576 27.244 50.6793 27.1464C50.7896 27.0488 50.9205 27 51.0721 27C51.2305 27 51.358 27.0521 51.4545 27.1562C51.5578 27.2538 51.6095 27.3774 51.6095 27.5271C51.6095 27.5791 51.606 27.6312 51.5991 27.6833C51.5923 27.7353 51.5785 27.7939 51.5578 27.8589C51.544 27.9175 51.5199 27.9923 51.4855 28.0834L51.0411 29.4304H50.545Z"/>
<path d="M54.2685 34.3401C53.8207 34.3401 53.3969 34.2815 52.9973 34.1644C52.5977 34.0408 52.2842 33.8879 52.0569 33.7057L52.3876 33.1591C52.6081 33.3152 52.8905 33.4519 53.235 33.569C53.5795 33.6796 53.9413 33.7349 54.3202 33.7349C54.8369 33.7349 55.209 33.6601 55.4364 33.5104C55.6637 33.3543 55.7774 33.1493 55.7774 32.8955C55.7774 32.7068 55.712 32.5604 55.5811 32.4563C55.457 32.3457 55.2917 32.2643 55.085 32.2123C54.8783 32.1537 54.6475 32.1049 54.3925 32.0658C54.1376 32.0268 53.8827 31.9813 53.6278 31.9292C53.3797 31.8771 53.1524 31.8023 52.9457 31.7047C52.739 31.6006 52.5702 31.4607 52.4393 31.285C52.3152 31.1093 52.2532 30.875 52.2532 30.5822C52.2532 30.3024 52.3359 30.0519 52.5013 29.8306C52.6666 29.6094 52.9078 29.4369 53.2247 29.3133C53.5485 29.1832 53.9413 29.1181 54.4029 29.1181C54.7543 29.1181 55.1056 29.1636 55.457 29.2547C55.8084 29.3393 56.0978 29.4532 56.3252 29.5964L56.0048 30.1527C55.7636 29.9966 55.5053 29.8859 55.2297 29.8209C54.9541 29.7493 54.6785 29.7135 54.4029 29.7135C53.9137 29.7135 53.552 29.7948 53.3177 29.9575C53.0904 30.1137 52.9767 30.3154 52.9767 30.5627C52.9767 30.7579 53.0387 30.9108 53.1627 31.0214C53.2936 31.1321 53.4624 31.2199 53.6691 31.285C53.8827 31.3436 54.1135 31.3924 54.3615 31.4314C54.6165 31.4704 54.868 31.5192 55.116 31.5778C55.3709 31.6299 55.6017 31.7047 55.8084 31.8023C56.022 31.8934 56.1908 32.0268 56.3148 32.2025C56.4457 32.3717 56.5112 32.5962 56.5112 32.876C56.5112 33.1753 56.4216 33.4356 56.2425 33.6569C56.0702 33.8716 55.8153 34.0408 55.4777 34.1644C55.147 34.2815 54.7439 34.3401 54.2685 34.3401Z"/>
<path d="M62.9188 29.1181C63.3598 29.1181 63.7456 29.1994 64.0763 29.3621C64.4139 29.5183 64.6757 29.759 64.8618 30.0844C65.0547 30.4098 65.1511 30.8197 65.1511 31.3143V34.2913H64.4174V31.3826C64.4174 30.8425 64.2727 30.4358 63.9833 30.1625C63.7008 29.8827 63.3012 29.7428 62.7845 29.7428C62.3986 29.7428 62.061 29.8176 61.7716 29.9673C61.4892 30.1104 61.2687 30.3219 61.1102 30.6017C60.9586 30.875 60.8828 31.2069 60.8828 31.5973V34.2913H60.1491V27.0488H60.8828V30.5724L60.7382 30.3089C60.9104 29.938 61.186 29.6484 61.5649 29.4402C61.9439 29.2255 62.3952 29.1181 62.9188 29.1181Z"/>
<path d="M69.1381 34.3401C68.6145 34.3401 68.1425 34.2295 67.7223 34.0082C67.3089 33.7805 66.9816 33.4714 66.7404 33.081C66.4993 32.684 66.3787 32.2318 66.3787 31.7242C66.3787 31.2102 66.4993 30.7579 66.7404 30.3675C66.9816 29.977 67.3089 29.6712 67.7223 29.45C68.1357 29.2287 68.6076 29.1181 69.1381 29.1181C69.6756 29.1181 70.151 29.2287 70.5644 29.45C70.9846 29.6712 71.3119 29.977 71.5462 30.3675C71.7873 30.7579 71.9079 31.2102 71.9079 31.7242C71.9079 32.2318 71.7873 32.684 71.5462 33.081C71.3119 33.4714 70.9846 33.7805 70.5644 34.0082C70.1441 34.2295 69.6687 34.3401 69.1381 34.3401ZM69.1381 33.7252C69.5309 33.7252 69.8788 33.6438 70.182 33.4812C70.4851 33.312 70.7228 33.0777 70.8951 32.7784C71.0742 32.4725 71.1638 32.1212 71.1638 31.7242C71.1638 31.3208 71.0742 30.9694 70.8951 30.6701C70.7228 30.3707 70.4851 30.1397 70.182 29.977C69.8788 29.8079 69.5343 29.7233 69.1485 29.7233C68.7626 29.7233 68.4181 29.8079 68.115 29.977C67.8118 30.1397 67.5707 30.3707 67.3915 30.6701C67.2124 30.9694 67.1228 31.3208 67.1228 31.7242C67.1228 32.1212 67.2124 32.4725 67.3915 32.7784C67.5707 33.0777 67.8118 33.312 68.115 33.4812C68.4181 33.6438 68.7592 33.7252 69.1381 33.7252Z"/>
<path d="M79.9789 29.1181C80.4199 29.1181 80.8023 29.1994 81.1261 29.3621C81.4568 29.5183 81.7117 29.759 81.8909 30.0844C82.0769 30.4098 82.1699 30.8197 82.1699 31.3143V34.2913H81.4361V31.3826C81.4361 30.8425 81.2984 30.4358 81.0228 30.1625C80.7541 29.8827 80.3717 29.7428 79.8756 29.7428C79.5035 29.7428 79.1797 29.8176 78.9041 29.9673C78.6354 30.1104 78.4253 30.3219 78.2737 30.6017C78.129 30.875 78.0566 31.2069 78.0566 31.5973V34.2913H77.3229V31.3826C77.3229 30.8425 77.1851 30.4358 76.9095 30.1625C76.6339 29.8827 76.248 29.7428 75.752 29.7428C75.3868 29.7428 75.0664 29.8176 74.7908 29.9673C74.5152 30.1104 74.3016 30.3219 74.1501 30.6017C74.0054 30.875 73.933 31.2069 73.933 31.5973V34.2913H73.1993V29.1669H73.902V30.5529L73.7883 30.3089C73.9537 29.938 74.219 29.6484 74.5841 29.4402C74.9562 29.2255 75.3937 29.1181 75.8967 29.1181C76.4272 29.1181 76.8785 29.245 77.2505 29.4988C77.6226 29.746 77.8637 30.1202 77.974 30.6213L77.6846 30.5139C77.8431 30.0974 78.1221 29.7623 78.5217 29.5085C78.9282 29.2482 79.414 29.1181 79.9789 29.1181Z"/>
<path d="M86.2579 34.3401C85.6929 34.3401 85.1968 34.2295 84.7696 34.0082C84.3425 33.7805 84.0083 33.4714 83.7671 33.081C83.526 32.684 83.4054 32.2318 83.4054 31.7242C83.4054 31.2167 83.5191 30.7677 83.7465 30.3772C83.9807 29.9868 84.2977 29.681 84.6973 29.4597C85.1038 29.232 85.5585 29.1181 86.0615 29.1181C86.5713 29.1181 87.0226 29.2287 87.4154 29.45C87.815 29.6647 88.1285 29.9705 88.3558 30.3675C88.5832 30.7579 88.6969 31.2102 88.6969 31.7242C88.6969 31.7568 88.6934 31.7925 88.6865 31.8316C88.6865 31.8641 88.6865 31.8999 88.6865 31.939H83.9635V31.4216H88.2938L88.0044 31.6266C88.0044 31.2557 87.9183 30.9271 87.7461 30.6408C87.5807 30.348 87.3533 30.1202 87.064 29.9575C86.7746 29.7948 86.4404 29.7135 86.0615 29.7135C85.6894 29.7135 85.3553 29.7948 85.059 29.9575C84.7627 30.1202 84.5319 30.348 84.3666 30.6408C84.2012 30.9336 84.1185 31.2687 84.1185 31.6461V31.7535C84.1185 32.1439 84.2081 32.4888 84.3872 32.7881C84.5733 33.081 84.8282 33.312 85.152 33.4812C85.4827 33.6438 85.8582 33.7252 86.2785 33.7252C86.6092 33.7252 86.9158 33.6699 87.1983 33.5593C87.4877 33.4486 87.7357 33.2794 87.9424 33.0517L88.3558 33.5007C88.1147 33.774 87.8115 33.9822 87.4464 34.1254C87.0881 34.2685 86.6919 34.3401 86.2579 34.3401Z"/>
</mask>
<path d="M21.8549 34.2913V33.1591L21.8239 32.9736V31.08C21.8239 30.644 21.693 30.3089 21.4312 30.0746C21.1762 29.8404 20.7939 29.7233 20.284 29.7233C19.9326 29.7233 19.5985 29.7786 19.2815 29.8892C18.9646 29.9998 18.6959 30.1462 18.4754 30.3284L18.1447 29.8111C18.4203 29.5899 18.751 29.4207 19.1368 29.3035C19.5227 29.1799 19.9292 29.1181 20.3564 29.1181C21.0591 29.1181 21.6 29.284 21.9789 29.6159C22.3648 29.9413 22.5577 30.4391 22.5577 31.1093V34.2913H21.8549ZM19.9843 34.3401C19.5778 34.3401 19.223 34.2783 18.9198 34.1547C18.6235 34.0245 18.3962 33.8488 18.2377 33.6276C18.0792 33.3998 18 33.1395 18 32.8467C18 32.5799 18.0655 32.3392 18.1964 32.1244C18.3342 31.9032 18.5546 31.7275 18.8578 31.5973C19.1678 31.4607 19.5812 31.3924 20.098 31.3924H21.9686V31.9097H20.1186C19.595 31.9097 19.2298 31.9975 19.0232 32.1732C18.8233 32.3489 18.7234 32.5669 18.7234 32.8272C18.7234 33.12 18.844 33.3543 19.0852 33.53C19.3263 33.7057 19.6639 33.7935 20.098 33.7935C20.5114 33.7935 20.8662 33.7057 21.1625 33.53C21.4656 33.3478 21.6861 33.0875 21.8239 32.7491L21.9893 33.2274C21.8515 33.5658 21.6103 33.8358 21.2658 34.0375C20.9282 34.2393 20.501 34.3401 19.9843 34.3401Z" fill="#4D4A99"/>
<path d="M24.344 34.2913V29.1669H25.0468V30.5627L24.9744 30.3187C25.126 29.9282 25.3809 29.6322 25.7392 29.4304C26.0975 29.2222 26.5419 29.1181 27.0724 29.1181V29.7916C27.0448 29.7916 27.0173 29.7916 26.9897 29.7916C26.9622 29.7851 26.9346 29.7818 26.907 29.7818C26.3352 29.7818 25.8873 29.9478 25.5635 30.2796C25.2397 30.605 25.0778 31.0702 25.0778 31.6754V34.2913H24.344Z" fill="#4D4A99"/>
<path d="M30.3658 34.3401C29.8422 34.3401 29.3702 34.2295 28.95 34.0082C28.5366 33.7805 28.2093 33.4714 27.9681 33.081C27.727 32.684 27.6064 32.2318 27.6064 31.7242C27.6064 31.2102 27.727 30.7579 27.9681 30.3675C28.2093 29.977 28.5366 29.6712 28.95 29.45C29.3633 29.2287 29.8353 29.1181 30.3658 29.1181C30.9032 29.1181 31.3786 29.2287 31.792 29.45C32.2123 29.6712 32.5396 29.977 32.7739 30.3675C33.015 30.7579 33.1356 31.2102 33.1356 31.7242C33.1356 32.2318 33.015 32.684 32.7739 33.081C32.5396 33.4714 32.2123 33.7805 31.792 34.0082C31.3718 34.2295 30.8964 34.3401 30.3658 34.3401ZM30.3658 33.7252C30.7586 33.7252 31.1065 33.6438 31.4097 33.4812C31.7128 33.312 31.9505 33.0777 32.1228 32.7784C32.3019 32.4725 32.3915 32.1212 32.3915 31.7242C32.3915 31.3208 32.3019 30.9694 32.1228 30.6701C31.9505 30.3707 31.7128 30.1397 31.4097 29.977C31.1065 29.8079 30.762 29.7233 30.3762 29.7233C29.9903 29.7233 29.6458 29.8079 29.3427 29.977C29.0395 30.1397 28.7984 30.3707 28.6192 30.6701C28.4401 30.9694 28.3505 31.3208 28.3505 31.7242C28.3505 32.1212 28.4401 32.4725 28.6192 32.7784C28.7984 33.0777 29.0395 33.312 29.3427 33.4812C29.6458 33.6438 29.9869 33.7252 30.3658 33.7252Z" fill="#4D4A99"/>
<path d="M41.2066 29.1181C41.6476 29.1181 42.03 29.1994 42.3538 29.3621C42.6845 29.5183 42.9394 29.759 43.1186 30.0844C43.3046 30.4098 43.3976 30.8197 43.3976 31.3143V34.2913H42.6638V31.3826C42.6638 30.8425 42.526 30.4358 42.2504 30.1625C41.9817 29.8827 41.5993 29.7428 41.1033 29.7428C40.7312 29.7428 40.4074 29.8176 40.1318 29.9673C39.8631 30.1104 39.6529 30.3219 39.5014 30.6017C39.3567 30.875 39.2843 31.2069 39.2843 31.5973V34.2913H38.5506V31.3826C38.5506 30.8425 38.4128 30.4358 38.1372 30.1625C37.8616 29.8827 37.4757 29.7428 36.9797 29.7428C36.6145 29.7428 36.2941 29.8176 36.0185 29.9673C35.7429 30.1104 35.5293 30.3219 35.3778 30.6017C35.2331 30.875 35.1607 31.2069 35.1607 31.5973V34.2913H34.427V29.1669H35.1297V30.5529L35.016 30.3089C35.1814 29.938 35.4467 29.6484 35.8118 29.4402C36.1839 29.2255 36.6214 29.1181 37.1243 29.1181C37.6549 29.1181 38.1062 29.245 38.4782 29.4988C38.8503 29.746 39.0914 30.1202 39.2017 30.6213L38.9123 30.5139C39.0708 30.0974 39.3498 29.7623 39.7494 29.5085C40.1559 29.2482 40.6417 29.1181 41.2066 29.1181Z" fill="#4D4A99"/>
<path d="M48.581 34.2913V33.1591L48.55 32.9736V31.08C48.55 30.644 48.4191 30.3089 48.1573 30.0746C47.9024 29.8404 47.52 29.7233 47.0101 29.7233C46.6588 29.7233 46.3246 29.7786 46.0077 29.8892C45.6907 29.9998 45.422 30.1462 45.2015 30.3284L44.8708 29.8111C45.1464 29.5899 45.4771 29.4207 45.863 29.3035C46.2488 29.1799 46.6553 29.1181 47.0825 29.1181C47.7853 29.1181 48.3261 29.284 48.7051 29.6159C49.0909 29.9413 49.2838 30.4391 49.2838 31.1093V34.2913H48.581ZM46.7104 34.3401C46.3039 34.3401 45.9491 34.2783 45.6459 34.1547C45.3497 34.0245 45.1223 33.8488 44.9638 33.6276C44.8054 33.3998 44.7261 33.1395 44.7261 32.8467C44.7261 32.5799 44.7916 32.3392 44.9225 32.1244C45.0603 31.9032 45.2808 31.7275 45.5839 31.5973C45.894 31.4607 46.3074 31.3924 46.8241 31.3924H48.6947V31.9097H46.8448C46.3211 31.9097 45.956 31.9975 45.7493 32.1732C45.5495 32.3489 45.4496 32.5669 45.4496 32.8272C45.4496 33.12 45.5701 33.3543 45.8113 33.53C46.0524 33.7057 46.39 33.7935 46.8241 33.7935C47.2375 33.7935 47.5923 33.7057 47.8886 33.53C48.1918 33.3478 48.4122 33.0875 48.55 32.7491L48.7154 33.2274C48.5776 33.5658 48.3364 33.8358 47.992 34.0375C47.6543 34.2393 47.2272 34.3401 46.7104 34.3401Z" fill="#4D4A99"/>
<path d="M50.545 29.4304L50.9997 27.6345L51.0824 28.0444C50.9239 28.0444 50.7896 27.9989 50.6793 27.9078C50.576 27.8101 50.5243 27.6833 50.5243 27.5271C50.5243 27.3709 50.576 27.244 50.6793 27.1464C50.7896 27.0488 50.9205 27 51.0721 27C51.2305 27 51.358 27.0521 51.4545 27.1562C51.5578 27.2538 51.6095 27.3774 51.6095 27.5271C51.6095 27.5791 51.606 27.6312 51.5991 27.6833C51.5923 27.7353 51.5785 27.7939 51.5578 27.8589C51.544 27.9175 51.5199 27.9923 51.4855 28.0834L51.0411 29.4304H50.545Z" fill="#4D4A99"/>
<path d="M54.2685 34.3401C53.8207 34.3401 53.3969 34.2815 52.9973 34.1644C52.5977 34.0408 52.2842 33.8879 52.0569 33.7057L52.3876 33.1591C52.6081 33.3152 52.8905 33.4519 53.235 33.569C53.5795 33.6796 53.9413 33.7349 54.3202 33.7349C54.8369 33.7349 55.209 33.6601 55.4364 33.5104C55.6637 33.3543 55.7774 33.1493 55.7774 32.8955C55.7774 32.7068 55.712 32.5604 55.5811 32.4563C55.457 32.3457 55.2917 32.2643 55.085 32.2123C54.8783 32.1537 54.6475 32.1049 54.3925 32.0658C54.1376 32.0268 53.8827 31.9813 53.6278 31.9292C53.3797 31.8771 53.1524 31.8023 52.9457 31.7047C52.739 31.6006 52.5702 31.4607 52.4393 31.285C52.3152 31.1093 52.2532 30.875 52.2532 30.5822C52.2532 30.3024 52.3359 30.0519 52.5013 29.8306C52.6666 29.6094 52.9078 29.4369 53.2247 29.3133C53.5485 29.1832 53.9413 29.1181 54.4029 29.1181C54.7543 29.1181 55.1056 29.1636 55.457 29.2547C55.8084 29.3393 56.0978 29.4532 56.3252 29.5964L56.0048 30.1527C55.7636 29.9966 55.5053 29.8859 55.2297 29.8209C54.9541 29.7493 54.6785 29.7135 54.4029 29.7135C53.9137 29.7135 53.552 29.7948 53.3177 29.9575C53.0904 30.1137 52.9767 30.3154 52.9767 30.5627C52.9767 30.7579 53.0387 30.9108 53.1627 31.0214C53.2936 31.1321 53.4624 31.2199 53.6691 31.285C53.8827 31.3436 54.1135 31.3924 54.3615 31.4314C54.6165 31.4704 54.868 31.5192 55.116 31.5778C55.3709 31.6299 55.6017 31.7047 55.8084 31.8023C56.022 31.8934 56.1908 32.0268 56.3148 32.2025C56.4457 32.3717 56.5112 32.5962 56.5112 32.876C56.5112 33.1753 56.4216 33.4356 56.2425 33.6569C56.0702 33.8716 55.8153 34.0408 55.4777 34.1644C55.147 34.2815 54.7439 34.3401 54.2685 34.3401Z" fill="#4D4A99"/>
<path d="M62.9188 29.1181C63.3598 29.1181 63.7456 29.1994 64.0763 29.3621C64.4139 29.5183 64.6757 29.759 64.8618 30.0844C65.0547 30.4098 65.1511 30.8197 65.1511 31.3143V34.2913H64.4174V31.3826C64.4174 30.8425 64.2727 30.4358 63.9833 30.1625C63.7008 29.8827 63.3012 29.7428 62.7845 29.7428C62.3986 29.7428 62.061 29.8176 61.7716 29.9673C61.4892 30.1104 61.2687 30.3219 61.1102 30.6017C60.9586 30.875 60.8828 31.2069 60.8828 31.5973V34.2913H60.1491V27.0488H60.8828V30.5724L60.7382 30.3089C60.9104 29.938 61.186 29.6484 61.5649 29.4402C61.9439 29.2255 62.3952 29.1181 62.9188 29.1181Z" fill="#4D4A99"/>
<path d="M69.1381 34.3401C68.6145 34.3401 68.1425 34.2295 67.7223 34.0082C67.3089 33.7805 66.9816 33.4714 66.7404 33.081C66.4993 32.684 66.3787 32.2318 66.3787 31.7242C66.3787 31.2102 66.4993 30.7579 66.7404 30.3675C66.9816 29.977 67.3089 29.6712 67.7223 29.45C68.1357 29.2287 68.6076 29.1181 69.1381 29.1181C69.6756 29.1181 70.151 29.2287 70.5644 29.45C70.9846 29.6712 71.3119 29.977 71.5462 30.3675C71.7873 30.7579 71.9079 31.2102 71.9079 31.7242C71.9079 32.2318 71.7873 32.684 71.5462 33.081C71.3119 33.4714 70.9846 33.7805 70.5644 34.0082C70.1441 34.2295 69.6687 34.3401 69.1381 34.3401ZM69.1381 33.7252C69.5309 33.7252 69.8788 33.6438 70.182 33.4812C70.4851 33.312 70.7228 33.0777 70.8951 32.7784C71.0742 32.4725 71.1638 32.1212 71.1638 31.7242C71.1638 31.3208 71.0742 30.9694 70.8951 30.6701C70.7228 30.3707 70.4851 30.1397 70.182 29.977C69.8788 29.8079 69.5343 29.7233 69.1485 29.7233C68.7626 29.7233 68.4181 29.8079 68.115 29.977C67.8118 30.1397 67.5707 30.3707 67.3915 30.6701C67.2124 30.9694 67.1228 31.3208 67.1228 31.7242C67.1228 32.1212 67.2124 32.4725 67.3915 32.7784C67.5707 33.0777 67.8118 33.312 68.115 33.4812C68.4181 33.6438 68.7592 33.7252 69.1381 33.7252Z" fill="#4D4A99"/>
<path d="M79.9789 29.1181C80.4199 29.1181 80.8023 29.1994 81.1261 29.3621C81.4568 29.5183 81.7117 29.759 81.8909 30.0844C82.0769 30.4098 82.1699 30.8197 82.1699 31.3143V34.2913H81.4361V31.3826C81.4361 30.8425 81.2984 30.4358 81.0228 30.1625C80.7541 29.8827 80.3717 29.7428 79.8756 29.7428C79.5035 29.7428 79.1797 29.8176 78.9041 29.9673C78.6354 30.1104 78.4253 30.3219 78.2737 30.6017C78.129 30.875 78.0566 31.2069 78.0566 31.5973V34.2913H77.3229V31.3826C77.3229 30.8425 77.1851 30.4358 76.9095 30.1625C76.6339 29.8827 76.248 29.7428 75.752 29.7428C75.3868 29.7428 75.0664 29.8176 74.7908 29.9673C74.5152 30.1104 74.3016 30.3219 74.1501 30.6017C74.0054 30.875 73.933 31.2069 73.933 31.5973V34.2913H73.1993V29.1669H73.902V30.5529L73.7883 30.3089C73.9537 29.938 74.219 29.6484 74.5841 29.4402C74.9562 29.2255 75.3937 29.1181 75.8967 29.1181C76.4272 29.1181 76.8785 29.245 77.2505 29.4988C77.6226 29.746 77.8637 30.1202 77.974 30.6213L77.6846 30.5139C77.8431 30.0974 78.1221 29.7623 78.5217 29.5085C78.9282 29.2482 79.414 29.1181 79.9789 29.1181Z" fill="#4D4A99"/>
<path d="M86.2579 34.3401C85.6929 34.3401 85.1968 34.2295 84.7696 34.0082C84.3425 33.7805 84.0083 33.4714 83.7671 33.081C83.526 32.684 83.4054 32.2318 83.4054 31.7242C83.4054 31.2167 83.5191 30.7677 83.7465 30.3772C83.9807 29.9868 84.2977 29.681 84.6973 29.4597C85.1038 29.232 85.5585 29.1181 86.0615 29.1181C86.5713 29.1181 87.0226 29.2287 87.4154 29.45C87.815 29.6647 88.1285 29.9705 88.3558 30.3675C88.5832 30.7579 88.6969 31.2102 88.6969 31.7242C88.6969 31.7568 88.6934 31.7925 88.6865 31.8316C88.6865 31.8641 88.6865 31.8999 88.6865 31.939H83.9635V31.4216H88.2938L88.0044 31.6266C88.0044 31.2557 87.9183 30.9271 87.7461 30.6408C87.5807 30.348 87.3533 30.1202 87.064 29.9575C86.7746 29.7948 86.4404 29.7135 86.0615 29.7135C85.6894 29.7135 85.3553 29.7948 85.059 29.9575C84.7627 30.1202 84.5319 30.348 84.3666 30.6408C84.2012 30.9336 84.1185 31.2687 84.1185 31.6461V31.7535C84.1185 32.1439 84.2081 32.4888 84.3872 32.7881C84.5733 33.081 84.8282 33.312 85.152 33.4812C85.4827 33.6438 85.8582 33.7252 86.2785 33.7252C86.6092 33.7252 86.9158 33.6699 87.1983 33.5593C87.4877 33.4486 87.7357 33.2794 87.9424 33.0517L88.3558 33.5007C88.1147 33.774 87.8115 33.9822 87.4464 34.1254C87.0881 34.2685 86.6919 34.3401 86.2579 34.3401Z" fill="#4D4A99"/>
<path d="M21.8549 34.2913V33.1591L21.8239 32.9736V31.08C21.8239 30.644 21.693 30.3089 21.4312 30.0746C21.1762 29.8404 20.7939 29.7233 20.284 29.7233C19.9326 29.7233 19.5985 29.7786 19.2815 29.8892C18.9646 29.9998 18.6959 30.1462 18.4754 30.3284L18.1447 29.8111C18.4203 29.5899 18.751 29.4207 19.1368 29.3035C19.5227 29.1799 19.9292 29.1181 20.3564 29.1181C21.0591 29.1181 21.6 29.284 21.9789 29.6159C22.3648 29.9413 22.5577 30.4391 22.5577 31.1093V34.2913H21.8549ZM19.9843 34.3401C19.5778 34.3401 19.223 34.2783 18.9198 34.1547C18.6235 34.0245 18.3962 33.8488 18.2377 33.6276C18.0792 33.3998 18 33.1395 18 32.8467C18 32.5799 18.0655 32.3392 18.1964 32.1244C18.3342 31.9032 18.5546 31.7275 18.8578 31.5973C19.1678 31.4607 19.5812 31.3924 20.098 31.3924H21.9686V31.9097H20.1186C19.595 31.9097 19.2298 31.9975 19.0232 32.1732C18.8233 32.3489 18.7234 32.5669 18.7234 32.8272C18.7234 33.12 18.844 33.3543 19.0852 33.53C19.3263 33.7057 19.6639 33.7935 20.098 33.7935C20.5114 33.7935 20.8662 33.7057 21.1625 33.53C21.4656 33.3478 21.6861 33.0875 21.8239 32.7491L21.9893 33.2274C21.8515 33.5658 21.6103 33.8358 21.2658 34.0375C20.9282 34.2393 20.501 34.3401 19.9843 34.3401Z" stroke="white" stroke-width="0.4" mask="url(#path-1-outside-1_184_481)"/>
<path d="M24.344 34.2913V29.1669H25.0468V30.5627L24.9744 30.3187C25.126 29.9282 25.3809 29.6322 25.7392 29.4304C26.0975 29.2222 26.5419 29.1181 27.0724 29.1181V29.7916C27.0448 29.7916 27.0173 29.7916 26.9897 29.7916C26.9622 29.7851 26.9346 29.7818 26.907 29.7818C26.3352 29.7818 25.8873 29.9478 25.5635 30.2796C25.2397 30.605 25.0778 31.0702 25.0778 31.6754V34.2913H24.344Z" stroke="white" stroke-width="0.4" mask="url(#path-1-outside-1_184_481)"/>
<path d="M30.3658 34.3401C29.8422 34.3401 29.3702 34.2295 28.95 34.0082C28.5366 33.7805 28.2093 33.4714 27.9681 33.081C27.727 32.684 27.6064 32.2318 27.6064 31.7242C27.6064 31.2102 27.727 30.7579 27.9681 30.3675C28.2093 29.977 28.5366 29.6712 28.95 29.45C29.3633 29.2287 29.8353 29.1181 30.3658 29.1181C30.9032 29.1181 31.3786 29.2287 31.792 29.45C32.2123 29.6712 32.5396 29.977 32.7739 30.3675C33.015 30.7579 33.1356 31.2102 33.1356 31.7242C33.1356 32.2318 33.015 32.684 32.7739 33.081C32.5396 33.4714 32.2123 33.7805 31.792 34.0082C31.3718 34.2295 30.8964 34.3401 30.3658 34.3401ZM30.3658 33.7252C30.7586 33.7252 31.1065 33.6438 31.4097 33.4812C31.7128 33.312 31.9505 33.0777 32.1228 32.7784C32.3019 32.4725 32.3915 32.1212 32.3915 31.7242C32.3915 31.3208 32.3019 30.9694 32.1228 30.6701C31.9505 30.3707 31.7128 30.1397 31.4097 29.977C31.1065 29.8079 30.762 29.7233 30.3762 29.7233C29.9903 29.7233 29.6458 29.8079 29.3427 29.977C29.0395 30.1397 28.7984 30.3707 28.6192 30.6701C28.4401 30.9694 28.3505 31.3208 28.3505 31.7242C28.3505 32.1212 28.4401 32.4725 28.6192 32.7784C28.7984 33.0777 29.0395 33.312 29.3427 33.4812C29.6458 33.6438 29.9869 33.7252 30.3658 33.7252Z" stroke="white" stroke-width="0.4" mask="url(#path-1-outside-1_184_481)"/>
<path d="M41.2066 29.1181C41.6476 29.1181 42.03 29.1994 42.3538 29.3621C42.6845 29.5183 42.9394 29.759 43.1186 30.0844C43.3046 30.4098 43.3976 30.8197 43.3976 31.3143V34.2913H42.6638V31.3826C42.6638 30.8425 42.526 30.4358 42.2504 30.1625C41.9817 29.8827 41.5993 29.7428 41.1033 29.7428C40.7312 29.7428 40.4074 29.8176 40.1318 29.9673C39.8631 30.1104 39.6529 30.3219 39.5014 30.6017C39.3567 30.875 39.2843 31.2069 39.2843 31.5973V34.2913H38.5506V31.3826C38.5506 30.8425 38.4128 30.4358 38.1372 30.1625C37.8616 29.8827 37.4757 29.7428 36.9797 29.7428C36.6145 29.7428 36.2941 29.8176 36.0185 29.9673C35.7429 30.1104 35.5293 30.3219 35.3778 30.6017C35.2331 30.875 35.1607 31.2069 35.1607 31.5973V34.2913H34.427V29.1669H35.1297V30.5529L35.016 30.3089C35.1814 29.938 35.4467 29.6484 35.8118 29.4402C36.1839 29.2255 36.6214 29.1181 37.1243 29.1181C37.6549 29.1181 38.1062 29.245 38.4782 29.4988C38.8503 29.746 39.0914 30.1202 39.2017 30.6213L38.9123 30.5139C39.0708 30.0974 39.3498 29.7623 39.7494 29.5085C40.1559 29.2482 40.6417 29.1181 41.2066 29.1181Z" stroke="white" stroke-width="0.4" mask="url(#path-1-outside-1_184_481)"/>
<path d="M48.581 34.2913V33.1591L48.55 32.9736V31.08C48.55 30.644 48.4191 30.3089 48.1573 30.0746C47.9024 29.8404 47.52 29.7233 47.0101 29.7233C46.6588 29.7233 46.3246 29.7786 46.0077 29.8892C45.6907 29.9998 45.422 30.1462 45.2015 30.3284L44.8708 29.8111C45.1464 29.5899 45.4771 29.4207 45.863 29.3035C46.2488 29.1799 46.6553 29.1181 47.0825 29.1181C47.7853 29.1181 48.3261 29.284 48.7051 29.6159C49.0909 29.9413 49.2838 30.4391 49.2838 31.1093V34.2913H48.581ZM46.7104 34.3401C46.3039 34.3401 45.9491 34.2783 45.6459 34.1547C45.3497 34.0245 45.1223 33.8488 44.9638 33.6276C44.8054 33.3998 44.7261 33.1395 44.7261 32.8467C44.7261 32.5799 44.7916 32.3392 44.9225 32.1244C45.0603 31.9032 45.2808 31.7275 45.5839 31.5973C45.894 31.4607 46.3074 31.3924 46.8241 31.3924H48.6947V31.9097H46.8448C46.3211 31.9097 45.956 31.9975 45.7493 32.1732C45.5495 32.3489 45.4496 32.5669 45.4496 32.8272C45.4496 33.12 45.5701 33.3543 45.8113 33.53C46.0524 33.7057 46.39 33.7935 46.8241 33.7935C47.2375 33.7935 47.5923 33.7057 47.8886 33.53C48.1918 33.3478 48.4122 33.0875 48.55 32.7491L48.7154 33.2274C48.5776 33.5658 48.3364 33.8358 47.992 34.0375C47.6543 34.2393 47.2272 34.3401 46.7104 34.3401Z" stroke="white" stroke-width="0.4" mask="url(#path-1-outside-1_184_481)"/>
<path d="M50.545 29.4304L50.9997 27.6345L51.0824 28.0444C50.9239 28.0444 50.7896 27.9989 50.6793 27.9078C50.576 27.8101 50.5243 27.6833 50.5243 27.5271C50.5243 27.3709 50.576 27.244 50.6793 27.1464C50.7896 27.0488 50.9205 27 51.0721 27C51.2305 27 51.358 27.0521 51.4545 27.1562C51.5578 27.2538 51.6095 27.3774 51.6095 27.5271C51.6095 27.5791 51.606 27.6312 51.5991 27.6833C51.5923 27.7353 51.5785 27.7939 51.5578 27.8589C51.544 27.9175 51.5199 27.9923 51.4855 28.0834L51.0411 29.4304H50.545Z" stroke="white" stroke-width="0.4" mask="url(#path-1-outside-1_184_481)"/>
<path d="M54.2685 34.3401C53.8207 34.3401 53.3969 34.2815 52.9973 34.1644C52.5977 34.0408 52.2842 33.8879 52.0569 33.7057L52.3876 33.1591C52.6081 33.3152 52.8905 33.4519 53.235 33.569C53.5795 33.6796 53.9413 33.7349 54.3202 33.7349C54.8369 33.7349 55.209 33.6601 55.4364 33.5104C55.6637 33.3543 55.7774 33.1493 55.7774 32.8955C55.7774 32.7068 55.712 32.5604 55.5811 32.4563C55.457 32.3457 55.2917 32.2643 55.085 32.2123C54.8783 32.1537 54.6475 32.1049 54.3925 32.0658C54.1376 32.0268 53.8827 31.9813 53.6278 31.9292C53.3797 31.8771 53.1524 31.8023 52.9457 31.7047C52.739 31.6006 52.5702 31.4607 52.4393 31.285C52.3152 31.1093 52.2532 30.875 52.2532 30.5822C52.2532 30.3024 52.3359 30.0519 52.5013 29.8306C52.6666 29.6094 52.9078 29.4369 53.2247 29.3133C53.5485 29.1832 53.9413 29.1181 54.4029 29.1181C54.7543 29.1181 55.1056 29.1636 55.457 29.2547C55.8084 29.3393 56.0978 29.4532 56.3252 29.5964L56.0048 30.1527C55.7636 29.9966 55.5053 29.8859 55.2297 29.8209C54.9541 29.7493 54.6785 29.7135 54.4029 29.7135C53.9137 29.7135 53.552 29.7948 53.3177 29.9575C53.0904 30.1137 52.9767 30.3154 52.9767 30.5627C52.9767 30.7579 53.0387 30.9108 53.1627 31.0214C53.2936 31.1321 53.4624 31.2199 53.6691 31.285C53.8827 31.3436 54.1135 31.3924 54.3615 31.4314C54.6165 31.4704 54.868 31.5192 55.116 31.5778C55.3709 31.6299 55.6017 31.7047 55.8084 31.8023C56.022 31.8934 56.1908 32.0268 56.3148 32.2025C56.4457 32.3717 56.5112 32.5962 56.5112 32.876C56.5112 33.1753 56.4216 33.4356 56.2425 33.6569C56.0702 33.8716 55.8153 34.0408 55.4777 34.1644C55.147 34.2815 54.7439 34.3401 54.2685 34.3401Z" stroke="white" stroke-width="0.4" mask="url(#path-1-outside-1_184_481)"/>
<path d="M62.9188 29.1181C63.3598 29.1181 63.7456 29.1994 64.0763 29.3621C64.4139 29.5183 64.6757 29.759 64.8618 30.0844C65.0547 30.4098 65.1511 30.8197 65.1511 31.3143V34.2913H64.4174V31.3826C64.4174 30.8425 64.2727 30.4358 63.9833 30.1625C63.7008 29.8827 63.3012 29.7428 62.7845 29.7428C62.3986 29.7428 62.061 29.8176 61.7716 29.9673C61.4892 30.1104 61.2687 30.3219 61.1102 30.6017C60.9586 30.875 60.8828 31.2069 60.8828 31.5973V34.2913H60.1491V27.0488H60.8828V30.5724L60.7382 30.3089C60.9104 29.938 61.186 29.6484 61.5649 29.4402C61.9439 29.2255 62.3952 29.1181 62.9188 29.1181Z" stroke="white" stroke-width="0.4" mask="url(#path-1-outside-1_184_481)"/>
<path d="M69.1381 34.3401C68.6145 34.3401 68.1425 34.2295 67.7223 34.0082C67.3089 33.7805 66.9816 33.4714 66.7404 33.081C66.4993 32.684 66.3787 32.2318 66.3787 31.7242C66.3787 31.2102 66.4993 30.7579 66.7404 30.3675C66.9816 29.977 67.3089 29.6712 67.7223 29.45C68.1357 29.2287 68.6076 29.1181 69.1381 29.1181C69.6756 29.1181 70.151 29.2287 70.5644 29.45C70.9846 29.6712 71.3119 29.977 71.5462 30.3675C71.7873 30.7579 71.9079 31.2102 71.9079 31.7242C71.9079 32.2318 71.7873 32.684 71.5462 33.081C71.3119 33.4714 70.9846 33.7805 70.5644 34.0082C70.1441 34.2295 69.6687 34.3401 69.1381 34.3401ZM69.1381 33.7252C69.5309 33.7252 69.8788 33.6438 70.182 33.4812C70.4851 33.312 70.7228 33.0777 70.8951 32.7784C71.0742 32.4725 71.1638 32.1212 71.1638 31.7242C71.1638 31.3208 71.0742 30.9694 70.8951 30.6701C70.7228 30.3707 70.4851 30.1397 70.182 29.977C69.8788 29.8079 69.5343 29.7233 69.1485 29.7233C68.7626 29.7233 68.4181 29.8079 68.115 29.977C67.8118 30.1397 67.5707 30.3707 67.3915 30.6701C67.2124 30.9694 67.1228 31.3208 67.1228 31.7242C67.1228 32.1212 67.2124 32.4725 67.3915 32.7784C67.5707 33.0777 67.8118 33.312 68.115 33.4812C68.4181 33.6438 68.7592 33.7252 69.1381 33.7252Z" stroke="white" stroke-width="0.4" mask="url(#path-1-outside-1_184_481)"/>
<path d="M79.9789 29.1181C80.4199 29.1181 80.8023 29.1994 81.1261 29.3621C81.4568 29.5183 81.7117 29.759 81.8909 30.0844C82.0769 30.4098 82.1699 30.8197 82.1699 31.3143V34.2913H81.4361V31.3826C81.4361 30.8425 81.2984 30.4358 81.0228 30.1625C80.7541 29.8827 80.3717 29.7428 79.8756 29.7428C79.5035 29.7428 79.1797 29.8176 78.9041 29.9673C78.6354 30.1104 78.4253 30.3219 78.2737 30.6017C78.129 30.875 78.0566 31.2069 78.0566 31.5973V34.2913H77.3229V31.3826C77.3229 30.8425 77.1851 30.4358 76.9095 30.1625C76.6339 29.8827 76.248 29.7428 75.752 29.7428C75.3868 29.7428 75.0664 29.8176 74.7908 29.9673C74.5152 30.1104 74.3016 30.3219 74.1501 30.6017C74.0054 30.875 73.933 31.2069 73.933 31.5973V34.2913H73.1993V29.1669H73.902V30.5529L73.7883 30.3089C73.9537 29.938 74.219 29.6484 74.5841 29.4402C74.9562 29.2255 75.3937 29.1181 75.8967 29.1181C76.4272 29.1181 76.8785 29.245 77.2505 29.4988C77.6226 29.746 77.8637 30.1202 77.974 30.6213L77.6846 30.5139C77.8431 30.0974 78.1221 29.7623 78.5217 29.5085C78.9282 29.2482 79.414 29.1181 79.9789 29.1181Z" stroke="white" stroke-width="0.4" mask="url(#path-1-outside-1_184_481)"/>
<path d="M86.2579 34.3401C85.6929 34.3401 85.1968 34.2295 84.7696 34.0082C84.3425 33.7805 84.0083 33.4714 83.7671 33.081C83.526 32.684 83.4054 32.2318 83.4054 31.7242C83.4054 31.2167 83.5191 30.7677 83.7465 30.3772C83.9807 29.9868 84.2977 29.681 84.6973 29.4597C85.1038 29.232 85.5585 29.1181 86.0615 29.1181C86.5713 29.1181 87.0226 29.2287 87.4154 29.45C87.815 29.6647 88.1285 29.9705 88.3558 30.3675C88.5832 30.7579 88.6969 31.2102 88.6969 31.7242C88.6969 31.7568 88.6934 31.7925 88.6865 31.8316C88.6865 31.8641 88.6865 31.8999 88.6865 31.939H83.9635V31.4216H88.2938L88.0044 31.6266C88.0044 31.2557 87.9183 30.9271 87.7461 30.6408C87.5807 30.348 87.3533 30.1202 87.064 29.9575C86.7746 29.7948 86.4404 29.7135 86.0615 29.7135C85.6894 29.7135 85.3553 29.7948 85.059 29.9575C84.7627 30.1202 84.5319 30.348 84.3666 30.6408C84.2012 30.9336 84.1185 31.2687 84.1185 31.6461V31.7535C84.1185 32.1439 84.2081 32.4888 84.3872 32.7881C84.5733 33.081 84.8282 33.312 85.152 33.4812C85.4827 33.6438 85.8582 33.7252 86.2785 33.7252C86.6092 33.7252 86.9158 33.6699 87.1983 33.5593C87.4877 33.4486 87.7357 33.2794 87.9424 33.0517L88.3558 33.5007C88.1147 33.774 87.8115 33.9822 87.4464 34.1254C87.0881 34.2685 86.6919 34.3401 86.2579 34.3401Z" stroke="white" stroke-width="0.4" mask="url(#path-1-outside-1_184_481)"/>
<path fill-rule="evenodd" clip-rule="evenodd" d="M0.715266 0.969135C0.715266 0.969135 10.3609 11.9267 10.8635 11.9532C11.1768 11.9696 13.0536 10.1437 15.0341 7.89587L18.6344 3.80863L18.7768 12.8888L18.9186 21.969H20.7417H22.5648L22.4245 11.1093V0.000230464L20.7188 0C19.9368 0.000230464 19.1548 0.000230464 19.1548 0.000230464C19.1548 0.000230464 18.3886 0.895473 18.1122 1.24847C17.3302 2.24706 16.0279 4.01844 14.5535 5.68599C13.5076 6.86881 11.7701 8.62634 11.7701 8.62634L7.97792 4.31292L4.18576 0H2.09262H0L0.715266 0.969135ZM27.7577 10.9845V21.969H34.8338H41.9103L41.7357 21.0953L41.561 20.2215L36.4838 20.0787L31.407 19.9359V14.9804V10.0249L35.963 9.88058L40.5183 9.73628L40.693 8.86251L40.8676 7.98874H36.1371H31.407V4.99296V1.99719H36.6204H41.8337V0.998593V0H34.7957H27.7577V10.9845ZM46.0043 11V22L52.3906 21.8597L58.7769 21.7194V20.9705C58.7769 20.3728 57.8557 20.1925 54.2153 20.0772L49.6536 19.9329V9.96646V0H47.829H46.0043V11ZM62.1656 10.9845V21.969H63.9902H65.8149V10.9845V0H63.9902H62.1656V10.9845ZM68.9419 0.0933685C68.9419 0.0933685 72.7225 5.57315 77.0235 11.3755L84.8434 21.9246L86.2771 21.9471L87.7108 21.969V10.9481L87.7098 0L86.9278 0.000230464L85.6254 0L85.5289 8.38219L85.3648 16.5142L79.3663 8.38219L73.3732 0.0933685H71.1012H68.9419ZM92.9241 10.9845V21.969H99.962H107V20.9705V19.9719H101.787H96.5734V14.9789V9.98593H101.265H105.957V8.98734V7.98874H101.265H96.5734V4.99296V1.99719H101.787H107V0.998593V0H99.962H92.9241V10.9845ZM1.16987 13.9803V21.969H2.21253H3.25519L3.23851 14.8541C3.2333 12.6307 3.25424 7.48968 3.25424 7.48968V7.20033V6.91963L2.47225 5.99179C2.47225 5.99179 1.35243 5.99179 1.16892 5.99179C1.16892 5.99179 1.16987 9.58649 1.16987 13.9803ZM71.0282 14.6683V21.969H71.8102H72.5922V15.2895C72.5922 9.96147 72.5922 8.98757 72.5922 8.98757L71.0282 7.36712V14.6683Z" fill="#4D4A99"/>
</svg>
